<svg width="44" height="37" viewBox="0 0 44 37" fill="none" xmlns="http://www.w3.org/2000/svg">
<circle cx="25" cy="18" r="10" fill="#EFD90C"/>
<path d="M25 5L27.9187 13.9828H37.3637L29.7225 19.5344L32.6412 28.5172L25 22.9656L17.3588 28.5172L20.2775 19.5344L12.6363 13.9828H22.0813L25 5Z" fill="#EFD90C"/>
<path d="M29.1529 5.68118L29.0491 15.1257L37.9992 18.1429L28.9849 20.9627L28.8811 30.4071L23.4137 22.7054L14.3994 25.5251L20.0347 17.9454L14.5674 10.2436L23.5176 13.2609L29.1529 5.68118Z" fill="#EFD90C"/>
<path d="M33.0953 7.87658L29.9747 16.7912L37.4886 22.5139L28.046 22.3008L24.9254 31.2154L22.2101 22.169L12.7675 21.9559L20.532 16.5781L17.8168 7.53174L25.3308 13.2544L33.0953 7.87658Z" fill="#EFD90C"/>
<path d="M35.8877 10.9071L29.9393 18.2436L35.0786 26.168L26.2629 22.7778L20.3145 30.1144L20.8146 20.6826L11.9989 17.2923L21.1236 14.8534L21.6237 5.42158L26.763 13.346L35.8877 10.9071Z" fill="#EFD90C"/>
<ellipse cx="9.5" cy="24.5" rx="9.5" ry="7.5" fill="#D9D9D9"/>
<ellipse cx="14.5" cy="14.5" rx="8.5" ry="7.5" fill="#D9D9D9"/>
<ellipse cx="20.5" cy="23.5" rx="12.5" ry="8.5" fill="#D9D9D9"/>
<rect x="9" y="22" width="12" height="10" fill="#D9D9D9"/>
</svg>
