<svg width="105" height="16" viewBox="0 0 105 16" fill="none" xmlns="http://www.w3.org/2000/svg">
<path d="M101.814 8.64397L101.73 7.35997C101.802 7.16797 101.934 6.98597 102.126 6.81397C102.318 6.63797 102.546 6.49597 102.81 6.38797C103.074 6.27597 103.352 6.21997 103.644 6.21997C103.764 6.21997 103.874 6.22597 103.974 6.23797C104.078 6.24997 104.154 6.26997 104.202 6.29797V8.07997C104.146 8.04397 104.06 8.00797 103.944 7.97197C103.828 7.93597 103.652 7.91797 103.416 7.91797C103.128 7.91797 102.88 7.95997 102.672 8.04397C102.464 8.12397 102.288 8.22197 102.144 8.33797C102.004 8.44997 101.894 8.55197 101.814 8.64397ZM100.092 13V6.32197H101.676L101.778 7.36597L101.922 7.68397V13H100.092Z" fill="black"/>
<path d="M96.0111 13.096C94.9831 13.096 94.1951 12.79 93.6471 12.178C93.0991 11.566 92.8251 10.72 92.8251 9.64C92.8251 8.992 92.9491 8.412 93.1971 7.9C93.4491 7.388 93.8131 6.984 94.2891 6.688C94.7651 6.388 95.3471 6.236 96.0351 6.232C96.3831 6.228 96.7151 6.272 97.0311 6.364C97.3471 6.456 97.6291 6.606 97.8771 6.814C98.1251 7.018 98.3231 7.29 98.4711 7.63C98.6231 7.966 98.7011 8.378 98.7051 8.866C98.7051 9.11 98.7011 9.336 98.6931 9.544C98.6851 9.752 98.6671 9.93 98.6391 10.078H93.8091L93.9291 9.088H97.0011C97.0211 8.764 97.0031 8.48 96.9471 8.236C96.8951 7.988 96.7911 7.796 96.6351 7.66C96.4791 7.52 96.2591 7.45 95.9751 7.45C95.6991 7.45 95.4571 7.526 95.2491 7.678C95.0451 7.83 94.8871 8.092 94.7751 8.464C94.6671 8.832 94.6211 9.34 94.6371 9.988C94.6531 10.424 94.7371 10.774 94.8891 11.038C95.0451 11.298 95.2551 11.486 95.5191 11.602C95.7871 11.714 96.0971 11.77 96.4491 11.77C96.6411 11.77 96.8511 11.754 97.0791 11.722C97.3071 11.69 97.5231 11.648 97.7271 11.596C97.9311 11.54 98.0871 11.484 98.1951 11.428L98.5011 12.424C98.3531 12.544 98.1491 12.656 97.8891 12.76C97.6331 12.86 97.3411 12.94 97.0131 13C96.6891 13.064 96.3551 13.096 96.0111 13.096Z" fill="black"/>
<path d="M85.4336 13V3.25H87.2636V5.86L87.1676 7.234L87.1076 7.066C87.2556 6.938 87.4456 6.81 87.6776 6.682C87.9136 6.554 88.1716 6.446 88.4516 6.358C88.7316 6.27 89.0196 6.224 89.3156 6.22C90.0436 6.2 90.5756 6.402 90.9116 6.826C91.2516 7.25 91.4216 7.926 91.4216 8.854V13H89.5796V9.064C89.5796 8.536 89.5036 8.172 89.3516 7.972C89.1996 7.772 88.9356 7.678 88.5596 7.69C88.3916 7.694 88.1856 7.734 87.9416 7.81C87.6976 7.886 87.4716 8.012 87.2636 8.188V13H85.4336Z" fill="black"/>
<path d="M82.1416 13.096C81.7336 13.096 81.3956 13.03 81.1276 12.898C80.8636 12.762 80.6656 12.548 80.5336 12.256C80.4056 11.964 80.3416 11.578 80.3416 11.098V7.56999H79.5316V6.59199C79.8276 6.50799 80.0636 6.42799 80.2396 6.35199C80.4196 6.27599 80.5496 6.14399 80.6296 5.95599C80.6696 5.86399 80.7116 5.75599 80.7556 5.63199C80.8036 5.50799 80.8536 5.37399 80.9056 5.22999C80.9576 5.08599 81.0116 4.93999 81.0676 4.79199H82.1716V6.31599H83.9656V7.56999H82.1716V10.324C82.1716 10.748 82.1936 11.058 82.2376 11.254C82.2816 11.446 82.3576 11.57 82.4656 11.626C82.5736 11.678 82.7296 11.704 82.9336 11.704C83.0376 11.704 83.1576 11.692 83.2936 11.668C83.4296 11.64 83.5596 11.606 83.6836 11.566C83.8076 11.526 83.9036 11.484 83.9716 11.44L84.2116 12.466C84.1036 12.562 83.9416 12.66 83.7256 12.76C83.5096 12.856 83.2636 12.936 82.9876 13C82.7116 13.064 82.4296 13.096 82.1416 13.096Z" fill="black"/>
<path d="M74.734 13.096C74.31 13.096 73.938 13.01 73.618 12.838C73.298 12.666 73.048 12.426 72.868 12.118C72.692 11.81 72.604 11.452 72.604 11.044C72.604 10.636 72.714 10.286 72.934 9.99401C73.158 9.70201 73.46 9.47401 73.84 9.31001C74.1 9.20201 74.384 9.11801 74.692 9.05801C75.004 8.99801 75.314 8.95601 75.622 8.93201C75.934 8.90801 76.224 8.89601 76.492 8.89601L76.798 9.27401L76.492 9.86201C76.348 9.86201 76.186 9.87201 76.006 9.89201C75.826 9.91201 75.652 9.94201 75.484 9.98201C75.32 10.018 75.182 10.06 75.07 10.108C74.914 10.18 74.774 10.276 74.65 10.396C74.53 10.516 74.47 10.7 74.47 10.948C74.47 11.272 74.56 11.512 74.74 11.668C74.92 11.82 75.152 11.896 75.436 11.896C75.584 11.896 75.73 11.876 75.874 11.836C76.022 11.796 76.152 11.75 76.264 11.698C76.376 11.642 76.452 11.59 76.492 11.542L76.81 11.92L76.588 12.436C76.408 12.596 76.16 12.746 75.844 12.886C75.532 13.026 75.162 13.096 74.734 13.096ZM78.322 13H76.588V12.004H76.492V8.40401C76.492 8.06401 76.402 7.84201 76.222 7.73801C76.042 7.63001 75.784 7.57601 75.448 7.57601C75.196 7.57601 74.932 7.59801 74.656 7.64201C74.384 7.68601 74.126 7.74401 73.882 7.81601C73.638 7.88801 73.434 7.96601 73.27 8.05001L72.874 6.89801C73.01 6.81801 73.222 6.72401 73.51 6.61601C73.798 6.50801 74.128 6.41401 74.5 6.33401C74.872 6.25001 75.246 6.20801 75.622 6.20801C76.238 6.20801 76.744 6.28001 77.14 6.42401C77.54 6.56801 77.836 6.81201 78.028 7.15601C78.224 7.50001 78.322 7.97601 78.322 8.58401V13Z" fill="black"/>
<path d="M69.356 13.096C68.328 13.096 67.54 12.79 66.992 12.178C66.444 11.566 66.17 10.72 66.17 9.64C66.17 8.992 66.294 8.412 66.542 7.9C66.794 7.388 67.158 6.984 67.634 6.688C68.11 6.388 68.692 6.236 69.38 6.232C69.728 6.228 70.06 6.272 70.376 6.364C70.692 6.456 70.974 6.606 71.222 6.814C71.47 7.018 71.668 7.29 71.816 7.63C71.968 7.966 72.046 8.378 72.05 8.866C72.05 9.11 72.046 9.336 72.038 9.544C72.03 9.752 72.012 9.93 71.984 10.078H67.154L67.274 9.088H70.346C70.366 8.764 70.348 8.48 70.292 8.236C70.24 7.988 70.136 7.796 69.98 7.66C69.824 7.52 69.604 7.45 69.32 7.45C69.044 7.45 68.802 7.526 68.594 7.678C68.39 7.83 68.232 8.092 68.12 8.464C68.012 8.832 67.966 9.34 67.982 9.988C67.998 10.424 68.082 10.774 68.234 11.038C68.39 11.298 68.6 11.486 68.864 11.602C69.132 11.714 69.442 11.77 69.794 11.77C69.986 11.77 70.196 11.754 70.424 11.722C70.652 11.69 70.868 11.648 71.072 11.596C71.276 11.54 71.432 11.484 71.54 11.428L71.846 12.424C71.698 12.544 71.494 12.656 71.234 12.76C70.978 12.86 70.686 12.94 70.358 13C70.034 13.064 69.7 13.096 69.356 13.096Z" fill="black"/>
<path d="M58.1538 13.096L56.1318 6.31598H57.9318L58.7298 9.51998L59.2638 12.034H58.8498L59.4138 9.52598L60.3318 6.31598H62.0238L62.9418 9.51998L63.4818 12.016H63.0858L63.6078 9.53798L64.3998 6.31598H66.1278L64.0458 13.096H62.4198L61.3638 9.40598L60.9558 7.41398H61.2858L60.8658 9.40598L59.8398 13.096H58.1538Z" fill="black"/>
<path d="M50.1982 13.096C49.6142 13.096 49.1182 13.002 48.7102 12.814C48.3022 12.622 47.9722 12.36 47.7202 12.028C47.4722 11.696 47.2922 11.316 47.1802 10.888C47.0682 10.456 47.0142 9.99999 47.0182 9.51999C47.0302 8.80799 47.1782 8.20799 47.4622 7.71999C47.7502 7.23199 48.1402 6.86199 48.6322 6.60999C49.1282 6.35799 49.6902 6.23199 50.3182 6.23199C51.1022 6.23199 51.7282 6.39599 52.1962 6.72399C52.6642 7.05199 53.0002 7.48799 53.2042 8.03199C53.4082 8.57199 53.5042 9.15999 53.4922 9.79599C53.4842 10.512 53.3382 11.116 53.0542 11.608C52.7702 12.096 52.3822 12.466 51.8902 12.718C51.3982 12.97 50.8342 13.096 50.1982 13.096ZM50.2462 11.818C50.7222 11.822 51.0682 11.644 51.2842 11.284C51.5002 10.924 51.6082 10.402 51.6082 9.71799C51.6082 9.31399 51.5642 8.94599 51.4762 8.61399C51.3882 8.28199 51.2462 8.01599 51.0502 7.81599C50.8582 7.61599 50.6022 7.51399 50.2822 7.50999C49.8022 7.50599 49.4542 7.68199 49.2382 8.03799C49.0222 8.38999 48.9142 8.89999 48.9142 9.56799C48.9142 9.97599 48.9582 10.352 49.0462 10.696C49.1342 11.036 49.2742 11.308 49.4662 11.512C49.6622 11.716 49.9222 11.818 50.2462 11.818Z" fill="black"/>
<path d="M43 13V5H45.3V13H43Z" fill="#E62020"/>
<path d="M39 13V0H41.3V13H39Z" fill="#008000"/>
<path d="M34.2568 13.096C33.6728 13.096 33.1768 13.002 32.7688 12.814C32.3608 12.622 32.0308 12.36 31.7788 12.028C31.5308 11.696 31.3508 11.316 31.2388 10.888C31.1268 10.456 31.0728 9.99999 31.0768 9.51999C31.0888 8.80799 31.2368 8.20799 31.5208 7.71999C31.8088 7.23199 32.1988 6.86199 32.6908 6.60999C33.1868 6.35799 33.7488 6.23199 34.3768 6.23199C35.1608 6.23199 35.7868 6.39599 36.2548 6.72399C36.7228 7.05199 37.0588 7.48799 37.2628 8.03199C37.4668 8.57199 37.5628 9.15999 37.5508 9.79599C37.5428 10.512 37.3968 11.116 37.1128 11.608C36.8288 12.096 36.4408 12.466 35.9488 12.718C35.4568 12.97 34.8928 13.096 34.2568 13.096ZM34.3048 11.818C34.7808 11.822 35.1268 11.644 35.3428 11.284C35.5588 10.924 35.6668 10.402 35.6668 9.71799C35.6668 9.31399 35.6228 8.94599 35.5348 8.61399C35.4468 8.28199 35.3048 8.01599 35.1088 7.81599C34.9168 7.61599 34.6608 7.51399 34.3408 7.50999C33.8608 7.50599 33.5128 7.68199 33.2968 8.03799C33.0808 8.38999 32.9728 8.89999 32.9728 9.56799C32.9728 9.97599 33.0168 10.352 33.1048 10.696C33.1928 11.036 33.3328 11.308 33.5248 11.512C33.7208 11.716 33.9808 11.818 34.3048 11.818Z" fill="black"/>
<path d="M27.1021 13V7.57003H26.2081V6.52003L27.1021 6.31603V5.67403C27.1021 5.18603 27.1761 4.78003 27.3241 4.45603C27.4761 4.12803 27.6761 3.86803 27.9241 3.67603C28.1761 3.48403 28.4501 3.34803 28.7461 3.26803C29.0461 3.18403 29.3401 3.14203 29.6281 3.14203C29.9081 3.14203 30.1481 3.15803 30.3481 3.19003C30.5481 3.22203 30.6821 3.24803 30.7501 3.26803V4.57603C30.6581 4.54003 30.5401 4.51003 30.3961 4.48603C30.2521 4.45803 30.0641 4.44403 29.8321 4.44403C29.5721 4.44403 29.3581 4.53803 29.1901 4.72603C29.0261 4.91403 28.9441 5.21203 28.9441 5.62003V6.31603H30.4741V7.57003H28.9441V13H27.1021Z" fill="black"/>
<path d="M23.3721 13.096C22.9641 13.096 22.6261 13.03 22.3581 12.898C22.0941 12.762 21.8961 12.548 21.7641 12.256C21.6361 11.964 21.5721 11.578 21.5721 11.098V7.56999H20.7621V6.59199C21.0581 6.50799 21.2941 6.42799 21.4701 6.35199C21.6501 6.27599 21.7801 6.14399 21.8601 5.95599C21.9001 5.86399 21.9421 5.75599 21.9861 5.63199C22.0341 5.50799 22.0841 5.37399 22.1361 5.22999C22.1881 5.08599 22.2421 4.93999 22.2981 4.79199H23.4021V6.31599H25.1961V7.56999H23.4021V10.324C23.4021 10.748 23.4241 11.058 23.4681 11.254C23.5121 11.446 23.5881 11.57 23.6961 11.626C23.8041 11.678 23.9601 11.704 24.1641 11.704C24.2681 11.704 24.3881 11.692 24.5241 11.668C24.6601 11.64 24.7901 11.606 24.9141 11.566C25.0381 11.526 25.1341 11.484 25.2021 11.44L25.4421 12.466C25.3341 12.562 25.1721 12.66 24.9561 12.76C24.7401 12.856 24.4941 12.936 24.2181 13C23.9421 13.064 23.6601 13.096 23.3721 13.096Z" fill="black"/>
<path d="M17.7323 8.64397L17.6483 7.35997C17.7203 7.16797 17.8523 6.98597 18.0443 6.81397C18.2363 6.63797 18.4643 6.49597 18.7283 6.38797C18.9923 6.27597 19.2703 6.21997 19.5623 6.21997C19.6823 6.21997 19.7923 6.22597 19.8923 6.23797C19.9963 6.24997 20.0723 6.26997 20.1203 6.29797V8.07997C20.0643 8.04397 19.9783 8.00797 19.8623 7.97197C19.7463 7.93597 19.5703 7.91797 19.3343 7.91797C19.0463 7.91797 18.7983 7.95997 18.5903 8.04397C18.3823 8.12397 18.2063 8.22197 18.0623 8.33797C17.9223 8.44997 17.8123 8.55197 17.7323 8.64397ZM16.0103 13V6.32197H17.5943L17.6963 7.36597L17.8403 7.68397V13H16.0103Z" fill="black"/>
<path d="M11.4052 13.096C10.8212 13.096 10.3252 13.002 9.91724 12.814C9.50924 12.622 9.17924 12.36 8.92724 12.028C8.67924 11.696 8.49924 11.316 8.38724 10.888C8.27524 10.456 8.22124 9.99999 8.22524 9.51999C8.23724 8.80799 8.38524 8.20799 8.66924 7.71999C8.95724 7.23199 9.34724 6.86199 9.83924 6.60999C10.3352 6.35799 10.8972 6.23199 11.5252 6.23199C12.3092 6.23199 12.9352 6.39599 13.4032 6.72399C13.8712 7.05199 14.2072 7.48799 14.4112 8.03199C14.6152 8.57199 14.7112 9.15999 14.6992 9.79599C14.6912 10.512 14.5452 11.116 14.2612 11.608C13.9772 12.096 13.5892 12.466 13.0972 12.718C12.6052 12.97 12.0412 13.096 11.4052 13.096ZM11.4532 11.818C11.9292 11.822 12.2752 11.644 12.4912 11.284C12.7072 10.924 12.8152 10.402 12.8152 9.71799C12.8152 9.31399 12.7712 8.94599 12.6832 8.61399C12.5952 8.28199 12.4532 8.01599 12.2572 7.81599C12.0652 7.61599 11.8092 7.51399 11.4892 7.50999C11.0092 7.50599 10.6612 7.68199 10.4452 8.03799C10.2292 8.38999 10.1212 8.89999 10.1212 9.56799C10.1212 9.97599 10.1652 10.352 10.2532 10.696C10.3412 11.036 10.4812 11.308 10.6732 11.512C10.8692 11.716 11.1292 11.818 11.4532 11.818Z" fill="black"/>
<path d="M0.953979 15.964V6.31599H2.66398V7.13199L2.78398 7.27599V12.268L2.76598 12.736L2.78398 13.816V15.964H0.953979ZM3.86398 13.096C3.45998 13.096 3.12798 13.05 2.86798 12.958C2.60798 12.862 2.43998 12.786 2.36398 12.73L2.78398 11.566C2.88398 11.662 3.02198 11.732 3.19798 11.776C3.37798 11.816 3.58198 11.836 3.80998 11.836C4.10598 11.836 4.36798 11.748 4.59598 11.572C4.82398 11.396 5.00398 11.14 5.13598 10.804C5.27198 10.464 5.34198 10.05 5.34598 9.562C5.34998 8.84999 5.23398 8.34599 4.99798 8.04999C4.76198 7.75399 4.43598 7.60599 4.01998 7.60599C3.75998 7.60599 3.51998 7.65199 3.29998 7.74399C3.08398 7.83599 2.91198 7.93199 2.78398 8.03199L2.56198 7.10199C2.65398 7.00199 2.78198 6.88399 2.94598 6.74799C3.11398 6.61199 3.33198 6.49199 3.59998 6.38799C3.86798 6.28399 4.20198 6.23199 4.60198 6.23199C5.07398 6.23199 5.51198 6.34799 5.91598 6.57999C6.31998 6.80799 6.64398 7.15799 6.88798 7.62999C7.13198 8.09799 7.25398 8.69199 7.25398 9.41199C7.25398 10.156 7.11398 10.804 6.83398 11.356C6.55398 11.904 6.15798 12.332 5.64598 12.64C5.13798 12.944 4.54398 13.096 3.86398 13.096Z" fill="black"/>
</svg>
