<svg width="95" height="10" viewBox="0 0 95 10" fill="none" xmlns="http://www.w3.org/2000/svg">
<path d="M2.672 4.818C2.996 4.818 3.28 4.776 3.524 4.692C3.772 4.608 3.978 4.49 4.142 4.338C4.31 4.182 4.436 3.998 4.52 3.786C4.604 3.57 4.646 3.332 4.646 3.072C4.646 2.548 4.482 2.136 4.154 1.836C3.83 1.536 3.336 1.386 2.672 1.386H1.34V4.818H2.672ZM2.672 0.383999C3.224 0.383999 3.704 0.447999 4.112 0.576C4.52 0.704 4.858 0.885999 5.126 1.122C5.394 1.354 5.592 1.636 5.72 1.968C5.852 2.3 5.918 2.668 5.918 3.072C5.918 3.476 5.848 3.848 5.708 4.188C5.568 4.524 5.362 4.814 5.09 5.058C4.818 5.302 4.478 5.492 4.07 5.628C3.666 5.76 3.2 5.826 2.672 5.826H1.34V9H0.062V0.383999H2.672ZM9.69763 2.784C10.1496 2.784 10.5576 2.858 10.9216 3.006C11.2896 3.154 11.6016 3.364 11.8576 3.636C12.1176 3.908 12.3176 4.238 12.4576 4.626C12.5976 5.014 12.6676 5.45 12.6676 5.934C12.6676 6.418 12.5976 6.854 12.4576 7.242C12.3176 7.63 12.1176 7.962 11.8576 8.238C11.6016 8.51 11.2896 8.72 10.9216 8.868C10.5576 9.016 10.1496 9.09 9.69763 9.09C9.24163 9.09 8.82963 9.016 8.46163 8.868C8.09763 8.72 7.78563 8.51 7.52563 8.238C7.26563 7.962 7.06563 7.63 6.92563 7.242C6.78563 6.854 6.71563 6.418 6.71563 5.934C6.71563 5.45 6.78563 5.014 6.92563 4.626C7.06563 4.238 7.26563 3.908 7.52563 3.636C7.78563 3.364 8.09763 3.154 8.46163 3.006C8.82963 2.858 9.24163 2.784 9.69763 2.784ZM9.69763 8.082C10.2496 8.082 10.6596 7.898 10.9276 7.53C11.1996 7.158 11.3356 6.628 11.3356 5.94C11.3356 5.252 11.1996 4.722 10.9276 4.35C10.6596 3.974 10.2496 3.786 9.69763 3.786C9.13763 3.786 8.72163 3.974 8.44963 4.35C8.17763 4.722 8.04163 5.252 8.04163 5.94C8.04163 6.628 8.17763 7.158 8.44963 7.53C8.72163 7.898 9.13763 8.082 9.69763 8.082ZM15.0471 4.074C15.2431 3.674 15.4791 3.36 15.7551 3.132C16.0311 2.904 16.3631 2.79 16.7511 2.79C16.8831 2.79 17.0071 2.806 17.1231 2.838C17.2431 2.866 17.3471 2.91 17.4351 2.97L17.3571 3.852C17.3291 3.96 17.2631 4.014 17.1591 4.014C17.1031 4.014 17.0191 4.004 16.9071 3.984C16.7951 3.96 16.6751 3.948 16.5471 3.948C16.3591 3.948 16.1931 3.976 16.0491 4.032C15.9051 4.084 15.7751 4.164 15.6591 4.272C15.5471 4.376 15.4471 4.506 15.3591 4.662C15.2711 4.814 15.1891 4.988 15.1131 5.184V9H13.9431V2.904H14.6151C14.7431 2.904 14.8291 2.928 14.8731 2.976C14.9211 3.02 14.9551 3.1 14.9751 3.216L15.0471 4.074ZM22.7956 9V3.852H19.8796V7.422C19.8796 7.662 19.9376 7.842 20.0536 7.962C20.1736 8.078 20.3256 8.136 20.5096 8.136C20.6176 8.136 20.7096 8.122 20.7856 8.094C20.8656 8.066 20.9336 8.036 20.9896 8.004C21.0456 7.968 21.0936 7.936 21.1336 7.908C21.1736 7.88 21.2096 7.866 21.2416 7.866C21.2816 7.866 21.3116 7.876 21.3316 7.896C21.3556 7.912 21.3796 7.94 21.4036 7.98L21.7516 8.544C21.5596 8.72 21.3316 8.856 21.0676 8.952C20.8036 9.048 20.5296 9.096 20.2456 9.096C19.7536 9.096 19.3736 8.958 19.1056 8.682C18.8416 8.406 18.7096 8.012 18.7096 7.5V3.852H18.0016C17.9336 3.852 17.8756 3.832 17.8276 3.792C17.7836 3.748 17.7616 3.684 17.7616 3.6V3.126L18.7516 2.988L19.0156 1.17C19.0316 1.102 19.0616 1.05 19.1056 1.014C19.1536 0.974 19.2136 0.954 19.2856 0.954H19.8796V3H22.7956V2.448C22.7956 2.1 22.8456 1.79 22.9456 1.518C23.0456 1.246 23.1876 1.016 23.3716 0.827999C23.5596 0.635999 23.7856 0.492 24.0496 0.396C24.3136 0.296 24.6096 0.245999 24.9376 0.245999C25.2056 0.245999 25.4596 0.286 25.6996 0.366L25.6696 0.954C25.6656 1.006 25.6496 1.046 25.6216 1.074C25.5976 1.098 25.5616 1.116 25.5136 1.128C25.4656 1.14 25.4096 1.148 25.3456 1.152C25.2816 1.152 25.2096 1.152 25.1296 1.152C24.9496 1.152 24.7856 1.174 24.6376 1.218C24.4896 1.262 24.3636 1.336 24.2596 1.44C24.1556 1.544 24.0756 1.682 24.0196 1.854C23.9636 2.022 23.9356 2.232 23.9356 2.484V3H25.6456V3.852H23.9716V9H22.7956ZM29.2445 2.784C29.6965 2.784 30.1045 2.858 30.4685 3.006C30.8365 3.154 31.1485 3.364 31.4045 3.636C31.6645 3.908 31.8645 4.238 32.0045 4.626C32.1445 5.014 32.2145 5.45 32.2145 5.934C32.2145 6.418 32.1445 6.854 32.0045 7.242C31.8645 7.63 31.6645 7.962 31.4045 8.238C31.1485 8.51 30.8365 8.72 30.4685 8.868C30.1045 9.016 29.6965 9.09 29.2445 9.09C28.7885 9.09 28.3765 9.016 28.0085 8.868C27.6445 8.72 27.3325 8.51 27.0725 8.238C26.8125 7.962 26.6125 7.63 26.4725 7.242C26.3325 6.854 26.2625 6.418 26.2625 5.934C26.2625 5.45 26.3325 5.014 26.4725 4.626C26.6125 4.238 26.8125 3.908 27.0725 3.636C27.3325 3.364 27.6445 3.154 28.0085 3.006C28.3765 2.858 28.7885 2.784 29.2445 2.784ZM29.2445 8.082C29.7965 8.082 30.2065 7.898 30.4745 7.53C30.7465 7.158 30.8825 6.628 30.8825 5.94C30.8825 5.252 30.7465 4.722 30.4745 4.35C30.2065 3.974 29.7965 3.786 29.2445 3.786C28.6845 3.786 28.2685 3.974 27.9965 4.35C27.7245 4.722 27.5885 5.252 27.5885 5.94C27.5885 6.628 27.7245 7.158 27.9965 7.53C28.2685 7.898 28.6845 8.082 29.2445 8.082ZM34.69 0.144V9H33.514V0.144H34.69ZM37.5851 2.904V9H36.4151V2.904H37.5851ZM37.8071 1.02C37.8071 1.128 37.7851 1.232 37.7411 1.332C37.6971 1.428 37.6371 1.514 37.5611 1.59C37.4891 1.662 37.4031 1.72 37.3031 1.764C37.2031 1.804 37.0991 1.824 36.9911 1.824C36.8831 1.824 36.7811 1.804 36.6851 1.764C36.5891 1.72 36.5031 1.662 36.4271 1.59C36.3551 1.514 36.2971 1.428 36.2531 1.332C36.2131 1.232 36.1931 1.128 36.1931 1.02C36.1931 0.908 36.2131 0.804 36.2531 0.707999C36.2971 0.608 36.3551 0.522 36.4271 0.45C36.5031 0.373999 36.5891 0.315999 36.6851 0.275999C36.7811 0.232 36.8831 0.21 36.9911 0.21C37.0991 0.21 37.2031 0.232 37.3031 0.275999C37.4031 0.315999 37.4891 0.373999 37.5611 0.45C37.6371 0.522 37.6971 0.608 37.7411 0.707999C37.7851 0.804 37.8071 0.908 37.8071 1.02ZM60.7768 0.383999L58.0888 9H56.9368L54.8368 2.61C54.7888 2.482 54.7468 2.328 54.7108 2.148C54.6668 2.332 54.6248 2.486 54.5848 2.61L52.4608 9H51.3148L48.6268 0.383999H49.6948C49.8068 0.383999 49.9008 0.411999 49.9768 0.468C50.0528 0.52 50.1028 0.592 50.1268 0.684L51.8248 6.45C51.8568 6.562 51.8848 6.684 51.9088 6.816C51.9368 6.948 51.9648 7.086 51.9928 7.23C52.0208 7.086 52.0488 6.948 52.0768 6.816C52.1088 6.684 52.1448 6.562 52.1848 6.45L54.1288 0.684C54.1528 0.604 54.2028 0.534 54.2788 0.473999C54.3588 0.413999 54.4528 0.383999 54.5608 0.383999H54.9268C55.0388 0.383999 55.1308 0.411999 55.2028 0.468C55.2748 0.523999 55.3268 0.595999 55.3588 0.684L57.2968 6.45C57.3688 6.67 57.4328 6.92 57.4888 7.2C57.5368 6.924 57.5888 6.674 57.6448 6.45L59.3488 0.684C59.3688 0.604 59.4188 0.534 59.4988 0.473999C59.5788 0.413999 59.6728 0.383999 59.7808 0.383999H60.7768ZM65.1022 5.274C65.1022 5.042 65.0682 4.828 65.0002 4.632C64.9362 4.436 64.8402 4.266 64.7122 4.122C64.5842 3.978 64.4282 3.866 64.2442 3.786C64.0602 3.706 63.8482 3.666 63.6082 3.666C63.1162 3.666 62.7282 3.808 62.4442 4.092C62.1642 4.376 61.9862 4.77 61.9102 5.274H65.1022ZM66.0682 8.13C65.9242 8.298 65.7582 8.444 65.5702 8.568C65.3822 8.688 65.1822 8.786 64.9702 8.862C64.7582 8.938 64.5382 8.994 64.3102 9.03C64.0862 9.066 63.8642 9.084 63.6442 9.084C63.2242 9.084 62.8342 9.014 62.4742 8.874C62.1182 8.73 61.8082 8.522 61.5442 8.25C61.2842 7.974 61.0802 7.634 60.9322 7.23C60.7882 6.822 60.7162 6.354 60.7162 5.826C60.7162 5.402 60.7822 5.008 60.9142 4.644C61.0462 4.276 61.2342 3.956 61.4782 3.684C61.7262 3.412 62.0282 3.198 62.3842 3.042C62.7402 2.886 63.1402 2.808 63.5842 2.808C63.9562 2.808 64.2982 2.87 64.6102 2.994C64.9262 3.114 65.1982 3.29 65.4262 3.522C65.6542 3.754 65.8322 4.04 65.9602 4.38C66.0922 4.72 66.1582 5.108 66.1582 5.544C66.1582 5.724 66.1382 5.846 66.0982 5.91C66.0582 5.97 65.9842 6 65.8762 6H61.8802C61.8922 6.364 61.9442 6.682 62.0362 6.954C62.1282 7.222 62.2542 7.446 62.4142 7.626C62.5782 7.806 62.7722 7.94 62.9962 8.028C63.2202 8.116 63.4702 8.16 63.7462 8.16C64.0062 8.16 64.2302 8.13 64.4182 8.07C64.6102 8.01 64.7742 7.946 64.9102 7.878C65.0502 7.806 65.1662 7.74 65.2582 7.68C65.3542 7.62 65.4382 7.59 65.5102 7.59C65.6062 7.59 65.6802 7.626 65.7322 7.698L66.0682 8.13ZM70.6918 6.294C70.2158 6.31 69.8118 6.348 69.4798 6.408C69.1478 6.464 68.8778 6.54 68.6698 6.636C68.4618 6.732 68.3118 6.846 68.2198 6.978C68.1278 7.106 68.0818 7.25 68.0818 7.41C68.0818 7.562 68.1058 7.694 68.1538 7.806C68.2058 7.914 68.2738 8.004 68.3577 8.076C68.4458 8.144 68.5478 8.194 68.6638 8.226C68.7798 8.258 68.9058 8.274 69.0418 8.274C69.2218 8.274 69.3858 8.256 69.5338 8.22C69.6858 8.184 69.8278 8.134 69.9598 8.07C70.0918 8.002 70.2178 7.92 70.3378 7.824C70.4578 7.728 70.5758 7.618 70.6918 7.494V6.294ZM67.2598 3.756C67.5998 3.432 67.9678 3.19 68.3638 3.03C68.7638 2.87 69.2018 2.79 69.6777 2.79C70.0258 2.79 70.3338 2.848 70.6018 2.964C70.8698 3.076 71.0958 3.234 71.2798 3.438C71.4638 3.642 71.6018 3.886 71.6938 4.17C71.7898 4.454 71.8378 4.768 71.8378 5.112V9H71.3158C71.1998 9 71.1118 8.982 71.0518 8.946C70.9918 8.906 70.9438 8.834 70.9078 8.73L70.7818 8.196C70.6258 8.34 70.4718 8.468 70.3198 8.58C70.1678 8.688 70.0078 8.782 69.8398 8.862C69.6758 8.938 69.4998 8.996 69.3118 9.036C69.1238 9.076 68.9158 9.096 68.6878 9.096C68.4478 9.096 68.2218 9.064 68.0098 9C67.8018 8.932 67.6198 8.83 67.4638 8.694C67.3078 8.558 67.1838 8.388 67.0918 8.184C67.0038 7.98 66.9598 7.742 66.9598 7.47C66.9598 7.23 67.0238 7 67.1518 6.78C67.2838 6.556 67.4958 6.356 67.7878 6.18C68.0838 6.004 68.4678 5.86 68.9398 5.748C69.4158 5.636 69.9998 5.572 70.6918 5.556V5.112C70.6918 4.652 70.5938 4.308 70.3978 4.08C70.2018 3.852 69.9138 3.738 69.5338 3.738C69.2778 3.738 69.0618 3.77 68.8858 3.834C68.7138 3.898 68.5638 3.97 68.4358 4.05C68.3118 4.126 68.2018 4.196 68.1058 4.26C68.0138 4.324 67.9178 4.356 67.8178 4.356C67.7378 4.356 67.6678 4.334 67.6078 4.29C67.5518 4.246 67.5058 4.194 67.4698 4.134L67.2598 3.756ZM75.23 9.096C74.738 9.096 74.358 8.958 74.09 8.682C73.826 8.406 73.694 8.012 73.694 7.5V3.852H72.986C72.918 3.852 72.86 3.832 72.812 3.792C72.768 3.748 72.746 3.684 72.746 3.6V3.126L73.736 2.988L74 1.17C74.016 1.102 74.046 1.05 74.09 1.014C74.138 0.974 74.198 0.954 74.27 0.954H74.864V3H76.592V3.852H74.864V7.422C74.864 7.662 74.922 7.842 75.038 7.962C75.158 8.078 75.31 8.136 75.494 8.136C75.602 8.136 75.694 8.122 75.77 8.094C75.85 8.066 75.918 8.036 75.974 8.004C76.03 7.968 76.078 7.936 76.118 7.908C76.158 7.88 76.194 7.866 76.226 7.866C76.266 7.866 76.296 7.876 76.316 7.896C76.34 7.912 76.364 7.94 76.388 7.98L76.736 8.544C76.544 8.72 76.316 8.856 76.052 8.952C75.788 9.048 75.514 9.096 75.23 9.096ZM78.8397 3.678C79.0957 3.418 79.3777 3.208 79.6857 3.048C79.9977 2.888 80.3557 2.808 80.7597 2.808C81.0957 2.808 81.3897 2.864 81.6417 2.976C81.8977 3.088 82.1117 3.246 82.2837 3.45C82.4557 3.65 82.5857 3.892 82.6737 4.176C82.7617 4.46 82.8057 4.774 82.8057 5.118V9H81.6297V5.118C81.6297 4.682 81.5297 4.344 81.3297 4.104C81.1297 3.86 80.8237 3.738 80.4117 3.738C80.1117 3.738 79.8297 3.81 79.5657 3.954C79.3057 4.094 79.0637 4.286 78.8397 4.53V9H77.6697V0.144H78.8397V3.678ZM88.4225 5.274C88.4225 5.042 88.3885 4.828 88.3205 4.632C88.2565 4.436 88.1605 4.266 88.0325 4.122C87.9045 3.978 87.7485 3.866 87.5645 3.786C87.3805 3.706 87.1685 3.666 86.9285 3.666C86.4365 3.666 86.0485 3.808 85.7645 4.092C85.4845 4.376 85.3065 4.77 85.2305 5.274H88.4225ZM89.3885 8.13C89.2445 8.298 89.0785 8.444 88.8905 8.568C88.7025 8.688 88.5025 8.786 88.2905 8.862C88.0785 8.938 87.8585 8.994 87.6305 9.03C87.4065 9.066 87.1845 9.084 86.9645 9.084C86.5445 9.084 86.1545 9.014 85.7945 8.874C85.4385 8.73 85.1285 8.522 84.8645 8.25C84.6045 7.974 84.4005 7.634 84.2525 7.23C84.1085 6.822 84.0365 6.354 84.0365 5.826C84.0365 5.402 84.1025 5.008 84.2345 4.644C84.3665 4.276 84.5545 3.956 84.7985 3.684C85.0465 3.412 85.3485 3.198 85.7045 3.042C86.0605 2.886 86.4605 2.808 86.9045 2.808C87.2765 2.808 87.6185 2.87 87.9305 2.994C88.2465 3.114 88.5185 3.29 88.7465 3.522C88.9745 3.754 89.1525 4.04 89.2805 4.38C89.4125 4.72 89.4785 5.108 89.4785 5.544C89.4785 5.724 89.4585 5.846 89.4185 5.91C89.3785 5.97 89.3045 6 89.1965 6H85.2005C85.2125 6.364 85.2645 6.682 85.3565 6.954C85.4485 7.222 85.5745 7.446 85.7345 7.626C85.8985 7.806 86.0925 7.94 86.3165 8.028C86.5405 8.116 86.7905 8.16 87.0665 8.16C87.3265 8.16 87.5505 8.13 87.7385 8.07C87.9305 8.01 88.0945 7.946 88.2305 7.878C88.3705 7.806 88.4865 7.74 88.5785 7.68C88.6745 7.62 88.7585 7.59 88.8305 7.59C88.9265 7.59 89.0005 7.626 89.0525 7.698L89.3885 8.13ZM91.8401 4.074C92.0361 3.674 92.2721 3.36 92.5481 3.132C92.8241 2.904 93.1561 2.79 93.5441 2.79C93.6761 2.79 93.8001 2.806 93.9161 2.838C94.0361 2.866 94.1401 2.91 94.2281 2.97L94.1501 3.852C94.1221 3.96 94.0561 4.014 93.9521 4.014C93.8961 4.014 93.8121 4.004 93.7001 3.984C93.5881 3.96 93.4681 3.948 93.3401 3.948C93.1521 3.948 92.9861 3.976 92.8421 4.032C92.6981 4.084 92.5681 4.164 92.4521 4.272C92.3401 4.376 92.2401 4.506 92.1521 4.662C92.0641 4.814 91.9821 4.988 91.9061 5.184V9H90.7361V2.904H91.4081C91.5361 2.904 91.6221 2.928 91.6661 2.976C91.7141 3.02 91.7481 3.1 91.7681 3.216L91.8401 4.074Z" fill="black"/>
<path d="M41.955 2.682C42.427 2.682 42.857 2.756 43.245 2.904C43.633 3.052 43.965 3.264 44.241 3.54C44.521 3.816 44.737 4.152 44.889 4.548C45.045 4.94 45.123 5.382 45.123 5.874C45.123 6.37 45.045 6.818 44.889 7.218C44.737 7.614 44.521 7.952 44.241 8.232C43.965 8.508 43.633 8.722 43.245 8.874C42.857 9.022 42.427 9.096 41.955 9.096C41.479 9.096 41.045 9.022 40.653 8.874C40.265 8.722 39.929 8.508 39.645 8.232C39.365 7.952 39.147 7.614 38.991 7.218C38.839 6.818 38.763 6.37 38.763 5.874C38.763 5.382 38.839 4.94 38.991 4.548C39.147 4.152 39.365 3.816 39.645 3.54C39.929 3.264 40.265 3.052 40.653 2.904C41.045 2.756 41.479 2.682 41.955 2.682ZM41.955 7.716C42.383 7.716 42.697 7.566 42.897 7.266C43.101 6.962 43.203 6.502 43.203 5.886C43.203 5.27 43.101 4.812 42.897 4.512C42.697 4.212 42.383 4.062 41.955 4.062C41.515 4.062 41.193 4.212 40.989 4.512C40.785 4.812 40.683 5.27 40.683 5.886C40.683 6.502 40.785 6.962 40.989 7.266C41.193 7.566 41.515 7.716 41.955 7.716Z" fill="#FF8C00"/>
</svg>
