<svg width="37" height="37" viewBox="0 0 37 37" fill="none" xmlns="http://www.w3.org/2000/svg">
<circle cx="18" cy="18" r="10" fill="black"/>
<path d="M18 5L20.9187 13.9828H30.3637L22.7225 19.5344L25.6412 28.5172L18 22.9656L10.3588 28.5172L13.2775 19.5344L5.63627 13.9828H15.0813L18 5Z" fill="black"/>
<path d="M22.1529 5.68118L22.0491 15.1257L30.9992 18.1429L21.9849 20.9627L21.8811 30.4071L16.4137 22.7054L7.39941 25.5251L13.0347 17.9454L7.56742 10.2436L16.5176 13.2609L22.1529 5.68118Z" fill="black"/>
<path d="M26.0953 7.87658L22.9747 16.7912L30.4886 22.5139L21.046 22.3008L17.9254 31.2154L15.2101 22.169L5.76748 21.9559L13.532 16.5781L10.8168 7.53174L18.3308 13.2544L26.0953 7.87658Z" fill="black"/>
<path d="M28.8877 10.9071L22.9393 18.2436L28.0786 26.168L19.2629 22.7778L13.3145 30.1144L13.8146 20.6826L4.99892 17.2923L14.1236 14.8534L14.6237 5.42158L19.763 13.346L28.8877 10.9071Z" fill="black"/>
</svg>
