<svg width="34" height="34" viewBox="0 0 34 34" fill="none" xmlns="http://www.w3.org/2000/svg">
<path d="M26 17C26 22.5228 21.7716 27 16.5556 27C11.3395 27 7.11111 22.5228 7.11111 17C7.11111 11.4772 11.3395 7 16.5556 7C21.7716 7 26 11.4772 26 17Z" fill="black"/>
<path d="M16.5 5L19.0819 13.2918H27.4371L20.6776 18.4164L23.2595 26.7082L16.5 21.5836L9.74047 26.7082L12.3224 18.4164L5.56285 13.2918H13.9181L16.5 5Z" fill="black"/>
<path d="M20.7657 5.78375L20.2314 14.4518L28.041 17.4218L19.9013 19.8089L19.3671 28.477L14.8707 21.2842L6.73097 23.6713L12.0917 16.8389L7.59535 9.64614L15.4049 12.6162L20.7657 5.78375Z" fill="black"/>
<path d="M24.1484 7.32194L20.8601 15.3598L27.303 20.6795L18.8278 20.3274L15.5394 28.3653L13.5898 20.1099L5.11463 19.7578L12.3849 15.0077L10.4353 6.75233L16.8782 12.072L24.1484 7.32194Z" fill="black"/>
<path d="M26.3394 10.5536L20.8882 17.3141L25.5392 24.2552L17.5192 21.4924L12.0681 28.2529L12.5626 19.7848L4.54268 17.022L12.8683 14.5513L13.3629 6.08321L18.0138 13.0243L26.3394 10.5536Z" fill="black"/>
</svg>
