<svg width="37" height="37" viewBox="0 0 37 37" fill="none" xmlns="http://www.w3.org/2000/svg">
<path d="M19.4558 17.2556L26.6155 13.4145" stroke="white" stroke-linecap="round"/>
<path d="M24.1244 11.0627L22.3197 15.7192L27.1973 16.7905" stroke="white" stroke-linecap="round"/>
<path d="M19.9331 16.9995L18.0239 18.0238" stroke="white"/>
<path d="M16.5919 18.7921L9.43224 22.6332" stroke="white" stroke-linecap="round"/>
<path d="M8.8504 19.2572L13.7281 20.3285L11.9233 24.9849" stroke="white" stroke-linecap="round"/>
<path d="M16.1146 19.0482L18.0239 18.0238" stroke="white"/>
<path d="M18.1783 16.5335L18.2778 8.40907" stroke="white" stroke-linecap="round"/>
<path d="M15.0148 9.4525L18.2181 13.2837L21.5143 9.53215" stroke="white" stroke-linecap="round"/>
<path d="M18.1849 15.9918L18.1583 18.1583" stroke="white"/>
<path d="M18.0898 19.7276L18.0254 27.8523" stroke="white" stroke-linecap="round"/>
<path d="M14.784 26.7433L18.064 22.9775L21.2838 26.7948" stroke="white" stroke-linecap="round"/>
<path d="M18.0855 20.2692L18.1026 18.1026" stroke="white"/>
<path d="M16.765 17.2481L9.94028 12.8391" stroke="white" stroke-linecap="round"/>
<path d="M9.08662 16.1568L14.0351 15.4845L12.6138 10.6971" stroke="white" stroke-linecap="round"/>
<path d="M16.31 16.9542L18.1299 18.1299" stroke="white"/>
<path d="M19.4948 19.0117L26.3195 23.4207" stroke="white" stroke-linecap="round"/>
<path d="M23.6459 25.5627L22.2247 20.7753L27.1731 20.103" stroke="white" stroke-linecap="round"/>
<path d="M19.9498 19.3056L18.1299 18.1299" stroke="white"/>
<path d="M19.4558 17.2556L26.6155 13.4145" stroke="white" stroke-linecap="round"/>
<path d="M24.1244 11.0627L22.3197 15.7192L27.1973 16.7905" stroke="white" stroke-linecap="round"/>
<path d="M19.9331 16.9995L18.0239 18.0238" stroke="white"/>
<path d="M16.5919 18.7921L9.43224 22.6332" stroke="white" stroke-linecap="round"/>
<path d="M8.8504 19.2572L13.7281 20.3285L11.9233 24.9849" stroke="white" stroke-linecap="round"/>
<path d="M16.1146 19.0482L18.0239 18.0238" stroke="white"/>
<path d="M18.1783 16.5335L18.2778 8.40907" stroke="white" stroke-linecap="round"/>
<path d="M15.0148 9.4525L18.2181 13.2837L21.5143 9.53215" stroke="white" stroke-linecap="round"/>
<path d="M18.1849 15.9918L18.1583 18.1583" stroke="white"/>
<path d="M18.0898 19.7276L18.0254 27.8523" stroke="white" stroke-linecap="round"/>
<path d="M14.784 26.7433L18.064 22.9775L21.2838 26.7948" stroke="white" stroke-linecap="round"/>
<path d="M18.0855 20.2692L18.1026 18.1026" stroke="white"/>
</svg>
